<svg xmlns="http://www.w3.org/2000/svg" width="130mm" height="130mm" viewBox="0 0 100 100">
<path style="fill:#ffffff; stroke:none;" d="M0 0L0 100L100 100L100 0L0 0z"></path>
<path style="fill:#000000; stroke:none;" d="M10 10L10 90L90 90L90 10L10 10z"></path>
<path style="fill:#ffffff; stroke:none;" d="M40 20L40 40L20 40L20 50L30 50L30 60L20 60L20 70L30 70L30 60L40 60L40 70L50 70L50 80L70 80L70 60L80 60L80 50L70 50L70 40L80 40L80 20L70 20L70 30L60 30L60 20L40 20z"></path>
<path style="fill:#000000; stroke:none;" d="M50 40L50 50L40 50L40 60L70 60L70 50L60 50L60 40L50 40z"></path>
</svg>
